<svg width="122" height="122" viewBox="0 0 122 122" fill="none" xmlns="http://www.w3.org/2000/svg">
<path d="M120.406 78.6996C118.27 76.5592 114.792 76.5592 112.595 78.6996C111.07 80.2276 110.643 82.4287 111.253 84.3243L101.978 90.3154C101.856 90.193 101.795 90.0706 101.673 90.0098C100.025 88.3591 97.8895 87.6255 95.7541 87.7479L92.8253 76.7432C93.252 76.4984 93.6182 76.254 93.9844 75.8868C95.2661 74.6029 95.7541 72.8913 95.4492 71.2405L104.846 65.7382C104.968 65.8606 105.09 65.983 105.212 66.1054C107.775 68.6725 111.924 68.6725 114.487 66.1054C117.05 63.5374 117.05 59.3799 114.487 56.8123C114.06 56.3839 113.572 56.0175 113.083 55.7727L115.524 43.2397C116.744 43.2397 117.965 42.8117 118.88 41.8333C120.71 39.9993 120.71 37.0035 118.88 35.1694C117.05 33.3352 114.06 33.3352 112.229 35.1694C110.399 37.0035 110.399 39.9993 112.229 41.8333C112.412 42.0169 112.656 42.2001 112.839 42.3833L110.399 54.9167C108.629 54.7335 106.859 55.3447 105.456 56.5675L94.2897 50.4536C94.8386 48.6196 94.3506 46.6024 92.9471 45.1961C92.7031 44.9513 92.3983 44.7069 92.093 44.5237L94.2284 33.3964C96.5474 33.7021 98.9268 32.9684 100.697 31.1955C103.687 28.1997 103.687 23.3087 100.697 20.3129C98.4997 18.112 95.2661 17.5006 92.52 18.6011L86.5404 9.24705C88.5536 7.10724 88.4927 3.68355 86.4182 1.60486C84.2823 -0.534953 80.8043 -0.534953 78.6079 1.60486C76.4721 3.74466 76.4721 7.22952 78.6079 9.43045C80.1332 10.9589 82.33 11.3869 84.2214 10.7755L90.2015 20.0684C90.0793 20.1907 89.9571 20.2518 89.8962 20.3741C88.2491 22.0248 87.5167 24.1646 87.6385 26.3045L76.6552 29.2391C76.4112 28.8111 76.1668 28.4443 75.8006 28.0774C74.5197 26.7935 72.8109 26.3044 71.1635 26.6101L65.6714 17.1338C65.7936 17.0115 65.9158 16.9504 66.0376 16.8281C68.6005 14.2603 68.6005 10.103 66.0376 7.53523C63.475 4.96743 59.3259 4.96743 56.7626 7.53523C56.3355 7.96315 55.9697 8.4523 55.7257 8.94138L43.2166 6.49585C43.2166 5.27311 42.7896 4.05036 41.8132 3.1333C39.9826 1.29917 36.9928 1.29917 35.1622 3.1333C33.3316 4.96743 33.3316 7.96315 35.1622 9.79728C36.9928 11.6314 39.9826 11.6314 41.8132 9.79728C41.9963 9.61389 42.1798 9.36933 42.3625 9.18593L54.8715 11.6314C54.6884 13.4044 55.2986 15.1774 56.5186 16.5835L50.4171 27.7718C48.5861 27.2215 46.5729 27.7106 45.1694 29.1168C44.9254 29.3613 44.681 29.667 44.4979 29.9727L33.3927 27.8329C33.6978 25.5097 32.9655 23.1253 31.196 21.3523C28.206 18.3566 23.3245 18.3566 20.3346 21.3523C18.1379 23.5532 17.5277 26.7935 18.565 29.5447L9.22912 35.3528C7.09346 33.3352 3.67638 33.3964 1.60175 35.4751C-0.533916 37.6761 -0.533916 41.1609 1.60175 43.3005C3.7374 45.4405 7.2155 45.4405 9.41217 43.3005C10.9377 41.7721 11.3648 39.5713 10.7546 37.6761L20.0295 31.6845C20.1516 31.8069 20.2125 31.9291 20.3346 31.9903C21.9821 33.641 24.1178 34.3746 26.2534 34.2523L29.1823 45.2569C28.7552 45.5017 28.3891 45.7461 28.023 46.1133C26.7416 47.3968 26.2534 49.1088 26.5585 50.7592L17.1006 56.2615C16.9785 56.1395 16.9175 56.0175 16.7955 55.8951C14.2327 53.3272 10.0834 53.3272 7.52059 55.8951C4.9578 58.4627 4.9578 62.6202 7.52059 65.1882C7.94772 65.6162 8.43587 65.983 8.92402 66.227L6.48327 78.7604C5.2629 78.7604 4.04252 79.1884 3.12722 80.1668C1.29665 82.0008 1.29665 84.9967 3.12722 86.8307C4.9578 88.6651 7.94772 88.6651 9.77829 86.8307C11.6088 84.9967 11.6088 82.0008 9.77829 80.1668C9.59527 79.9836 9.35116 79.7996 9.1681 79.6164L11.6088 67.0834C13.3784 67.2666 15.1479 66.6554 16.5514 65.4322L27.7179 71.5461C27.1687 73.3805 27.6569 75.3976 29.0603 76.804C29.3044 77.0484 29.6095 77.2932 29.9146 77.4764L27.7789 88.6035C25.4602 88.2979 23.0804 89.0319 21.3109 90.8046C18.321 93.8002 18.321 98.6913 21.3109 101.687C23.5075 103.888 26.7416 104.5 29.4874 103.399L35.4673 112.753C33.4537 114.893 33.5147 118.316 35.5893 120.395C37.725 122.535 41.203 122.535 43.3997 120.395C45.5356 118.255 45.5356 114.77 43.3997 112.57C41.8745 111.041 39.6776 110.613 37.786 111.224L31.8061 101.932C31.9282 101.809 32.0503 101.748 32.1112 101.626C33.7588 99.9753 34.491 97.8353 34.3079 95.6954L45.2916 92.761C45.5356 93.189 45.7796 93.5558 46.1458 93.9226C47.4267 95.2066 49.1354 95.6954 50.7833 95.3898L56.2746 104.805C56.1528 104.927 56.031 104.988 55.9088 105.111C53.3458 107.678 53.3458 111.836 55.9088 114.404C58.4713 116.971 62.6209 116.971 65.1838 114.404C65.6105 113.976 65.9767 113.486 66.2207 112.997L78.7301 115.443C78.7301 116.666 79.1568 117.889 80.1332 118.806C81.9638 120.64 84.9538 120.64 86.7844 118.806C88.6145 116.971 88.6145 113.976 86.7844 112.142C84.9538 110.308 81.9638 110.308 80.1332 112.142C79.9501 112.325 79.767 112.57 79.5839 112.753L67.0753 110.308C67.258 108.534 66.6478 106.762 65.4274 105.355L71.5293 94.1674C73.3602 94.7174 75.3735 94.2282 76.777 92.8218C77.0214 92.5778 77.2654 92.2718 77.4485 91.9662L88.5536 94.1058C88.2491 96.4294 88.9807 98.8133 90.7504 100.586C93.7404 103.582 98.6219 103.582 101.612 100.586C103.808 98.3857 104.419 95.1454 103.381 92.3942L112.717 86.4023C114.853 88.4203 118.27 88.3591 120.345 86.2807C122.541 84.3851 122.541 80.9 120.406 78.6996ZM89.8962 31.1343C90.4455 31.6845 90.9948 32.1125 91.6659 32.4182L89.4691 43.6065C88.4314 43.5453 87.3946 43.7897 86.4791 44.3397L76.6552 34.4357C77.1432 33.641 77.3876 32.7239 77.3876 31.7457L88.3705 28.8722C88.7367 29.7282 89.2247 30.4618 89.8962 31.1343ZM31.196 32.0514C31.7451 31.5011 32.1723 30.9509 32.4774 30.2784L43.5828 32.4182C43.5215 33.4576 43.7659 34.4969 44.3148 35.4139L34.491 45.3185C33.6367 44.8293 32.7214 44.5845 31.8061 44.5845L28.9383 33.5798C29.7315 33.2742 30.5247 32.7239 31.196 32.0514ZM32.1112 90.927C31.5621 90.3766 31.0129 89.9486 30.3417 89.643L32.4774 78.516C33.5147 78.5772 34.552 78.3324 35.4673 77.7824L45.3525 87.6255C44.8641 88.4203 44.6201 89.3375 44.6201 90.3154L33.6367 93.189C33.2706 92.333 32.7824 91.5994 32.1112 90.927ZM53.3458 94.4118C53.468 94.2894 53.5898 94.1674 53.712 94.045C55.787 91.9662 55.787 88.5427 53.712 86.4639C51.9424 84.6907 49.3185 84.4463 47.244 85.6079L37.4199 75.7644C38.5793 73.6861 38.3352 71.0569 36.5656 69.2841C34.491 67.2054 31.196 67.2054 29.1213 69.2229L18.1379 63.2318C18.7481 61.8254 18.8701 60.2359 18.443 58.7683L27.6569 53.3884C27.7789 53.5104 27.9009 53.6328 28.023 53.7551C30.0976 55.8339 33.5147 55.8339 35.5893 53.7551C37.3589 51.9824 37.603 49.3536 36.4436 47.2748L46.268 37.4315C48.3421 38.5931 50.9664 38.3485 52.7357 36.5755C54.8102 34.4969 54.8102 31.1955 52.7966 29.1168L58.7766 18.112C60.1801 18.7234 61.7663 18.8456 63.231 18.4177L68.6618 27.7106C68.5396 27.8329 68.4174 27.9552 68.2956 28.0774C66.2207 30.1561 66.2207 33.5798 68.2956 35.6585C70.0649 37.4315 72.6887 37.6761 74.7633 36.5144L84.5876 46.3577C83.4285 48.4364 83.6721 51.0652 85.4418 52.838C87.5167 54.9167 90.8117 54.9167 92.8862 52.8996L103.87 58.8907C103.259 60.2967 103.137 61.8862 103.564 63.2926L94.2897 68.7341C94.1675 68.6117 94.0453 68.4893 93.9235 68.3673C91.849 66.2886 88.4314 66.2886 86.3573 68.3673C84.5876 70.1401 84.3432 72.7689 85.5027 74.8477L75.7397 84.6295C73.6651 83.4679 71.0413 83.7127 69.272 85.4855C67.1971 87.5643 67.1971 90.8658 69.2111 92.9442L63.231 103.949C61.8276 103.338 60.241 103.216 58.7766 103.643L53.3458 94.4118ZM78.4248 89.5819C78.4857 88.5427 78.2417 87.5031 77.6925 86.5863L87.5167 76.7432C88.31 77.232 89.2247 77.4764 90.2015 77.4764L93.0689 88.4811C92.2761 88.8483 91.4828 89.3983 90.8117 90.0706C90.2624 90.6214 89.8353 91.1714 89.53 91.8438L78.4248 89.5819Z" fill="#153BFF" style="fill:#153BFF;fill:color(display-p3 0.0824 0.2314 1.0000);fill-opacity:1;"/>
</svg>
