<svg width="189" height="50" viewBox="0 0 189 50" fill="none" xmlns="http://www.w3.org/2000/svg">
<path d="M24.7748 18.8976L39.3915 39.9325H31.2084L18.6235 21.991H12.585V39.9325H5.41776V6.69288H0L3.61184 0H12.585V15.8043H18.6235L30.5876 0H38.7144L24.7748 18.8976ZM37.1907 25.5343C37.1907 22.4222 37.9054 19.7037 39.3352 17.379C40.7271 15.2043 42.6271 13.5358 45.035 12.3735C47.4429 11.2111 50.039 10.63 52.8231 10.63C55.6825 10.63 58.2597 11.1923 60.5546 12.3172C62.9626 13.4795 64.8625 15.2043 66.2545 17.4916C67.6466 19.7412 68.3427 22.4222 68.3427 25.5343C68.3427 28.684 67.6466 31.4024 66.2545 33.6895C64.8625 35.9393 62.9626 37.6829 60.5546 38.9202C58.1844 40.12 55.6072 40.7198 52.8231 40.7198C50.0766 40.7198 47.4994 40.12 45.0915 38.9202C42.6459 37.7202 40.7083 35.9767 39.2787 33.6895C37.8866 31.3648 37.1907 28.6465 37.1907 25.5343ZM158.921 11.5299H165.298V15.4105C166.276 13.9107 167.574 12.7672 169.192 11.9797C170.847 11.1548 172.973 10.7424 175.569 10.7424C178.24 10.7424 180.611 11.3423 182.68 12.5422C184.673 13.7795 186.216 15.5418 187.307 17.829C188.437 20.0788 189 22.666 189 25.5906C189 28.5527 188.437 31.1774 187.307 33.4645C186.216 35.7143 184.673 37.4579 182.68 38.6952C181.739 39.3326 180.629 39.8013 179.35 40.1012C178.108 40.4388 176.848 40.6075 175.569 40.6075C173.349 40.6075 171.694 40.4388 170.603 40.1012C168.345 39.4263 166.746 38.3015 165.806 36.7267V50H158.921V11.5299ZM72.011 11.5299H78.8396V22.3284H90.5216V11.5299H97.2937V39.9325H90.5216V27.9528H78.8396V39.9325H72.011V11.5299ZM100.285 11.5299H126.527V16.9291H116.82V39.9325H109.879V16.9291H100.285V11.5299ZM135.952 11.5299C138.51 18.5039 140.843 25.4031 142.95 32.2272C144.944 25.478 147.201 18.579 149.722 11.5299H156.607L146.11 40.4949C145.245 42.8571 144.417 44.6757 143.627 45.9505C142.762 47.2254 141.689 48.1814 140.41 48.819C139.168 49.4937 137.513 49.8313 135.444 49.8313C134.277 49.8313 133.638 49.8125 133.525 49.775L131.211 44.3757C131.926 44.5258 132.81 44.6006 133.864 44.6006C135.143 44.6006 136.177 44.4132 136.968 44.0383C137.682 43.7382 138.228 43.3258 138.604 42.801C138.98 42.3135 139.3 41.6948 139.563 40.9448L128.728 11.5299H135.952ZM44.132 25.478C44.132 28.5902 44.8846 30.9712 46.3895 32.6209C47.8944 34.2333 49.9825 35.0394 52.6538 35.0394C55.3626 35.0394 57.4695 34.2333 58.9744 32.6209C60.517 30.9712 61.2884 28.5902 61.2884 25.478C61.2884 22.441 60.5358 20.1537 59.0309 18.6163C57.526 17.0416 55.4003 16.2543 52.6538 16.2543C49.9448 16.2543 47.838 17.0416 46.333 18.6163C44.8657 20.1537 44.132 22.441 44.132 25.478ZM165.636 25.5343C165.712 28.3464 166.464 30.5963 167.894 32.2835C169.323 33.9708 171.336 34.8144 173.932 34.8144C176.528 34.8144 178.522 33.9708 179.914 32.2835C181.344 30.5963 182.077 28.3464 182.115 25.5343C182.077 22.7596 181.344 20.5473 179.914 18.8976C178.522 17.2103 176.528 16.3667 173.932 16.3667C171.336 16.3667 169.323 17.1916 167.894 18.8413C166.464 20.4912 165.712 22.7221 165.636 25.5343Z" fill="#153BFF" style="fill:#153BFF;fill:color(display-p3 0.0824 0.2314 1.0000);fill-opacity:1;"/>
</svg>
