<svg width="1046" height="126" viewBox="0 0 1046 126" fill="none" xmlns="http://www.w3.org/2000/svg">
<g clip-path="url(#clip0_381_750)">
<path d="M77.2033 170.455C66.9095 170.455 57.1077 168.636 47.7979 165C38.4881 161.288 30.238 155.833 23.0475 148.636C15.9326 141.439 10.2938 132.538 6.13085 121.932C2.04362 111.326 0 99.0909 0 85.2273C0 67.1212 3.44387 51.7424 10.3316 39.0909C17.2951 26.3636 26.6049 16.6667 38.261 9.99999C49.9929 3.33333 62.9737 0 77.2033 0C98.245 0 114.783 4.88636 126.818 14.6591C138.852 24.4318 146.913 38.2576 151.001 56.1364L119.438 60.6818C116.486 51.1364 111.642 43.5227 104.906 37.8409C98.245 32.0833 89.6921 29.1667 79.2469 29.0909C68.8775 28.9394 60.2488 31.1742 53.3611 35.7954C46.4734 40.4167 41.2886 46.9697 37.8069 55.4545C34.4009 63.9394 32.6979 73.8636 32.6979 85.2273C32.6979 96.5909 34.4009 106.439 37.8069 114.773C41.2886 123.106 46.4734 129.583 53.3611 134.205C60.2488 138.826 68.8775 141.212 79.2469 141.364C86.286 141.515 92.644 140.303 98.3207 137.727C104.073 135.152 108.917 131.098 112.853 125.568C116.789 120.038 119.589 112.955 121.255 104.318H95.3688V80.4545H154.18C154.331 81.4394 154.444 83.1818 154.52 85.6818C154.596 88.1818 154.634 89.6212 154.634 90C154.634 105.682 151.455 119.583 145.097 131.705C138.739 143.826 129.77 153.333 118.189 160.227C106.609 167.045 92.9467 170.455 77.2033 170.455Z" fill="#FAFAFA" style="fill:#FAFAFA;fill:color(display-p3 0.9804 0.9804 0.9804);fill-opacity:1;"/>
<path d="M223.483 170.455C211.146 170.455 200.322 167.689 191.013 162.159C181.703 156.629 174.437 149.015 169.214 139.318C164.067 129.545 161.494 118.333 161.494 105.682C161.494 92.8788 164.143 81.6288 169.441 71.9318C174.739 62.1591 182.043 54.5454 191.353 49.0909C200.663 43.6364 211.373 40.9091 223.483 40.9091C235.821 40.9091 246.644 43.6742 255.954 49.2045C265.34 54.7348 272.644 62.3864 277.866 72.1591C283.089 81.8561 285.7 93.0303 285.7 105.682C285.7 118.409 283.051 129.659 277.753 139.432C272.53 149.129 265.226 156.742 255.841 162.273C246.531 167.727 235.745 170.455 223.483 170.455ZM223.483 141.591C233.399 141.591 240.778 138.258 245.622 131.591C250.542 124.848 253.002 116.212 253.002 105.682C253.002 94.7727 250.504 86.0606 245.509 79.5455C240.589 73.0303 233.247 69.7727 223.483 69.7727C216.747 69.7727 211.222 71.2879 206.907 74.3182C202.593 77.3485 199.376 81.553 197.257 86.9318C195.213 92.3106 194.191 98.5606 194.191 105.682C194.191 116.667 196.651 125.417 201.571 131.932C206.567 138.371 213.871 141.591 223.483 141.591Z" fill="#FAFAFA" style="fill:#FAFAFA;fill:color(display-p3 0.9804 0.9804 0.9804);fill-opacity:1;"/>
<path d="M340.23 167.045V3.40909H371.112V167.045H340.23Z" fill="#FAFAFA" style="fill:#FAFAFA;fill:color(display-p3 0.9804 0.9804 0.9804);fill-opacity:1;"/>
<path d="M479.627 167.045V109.091C479.627 106.288 479.476 102.727 479.173 98.4091C478.87 94.0151 477.924 89.6212 476.335 85.2273C474.745 80.8333 472.134 77.1591 468.501 74.2045C464.943 71.25 459.872 69.7727 453.287 69.7727C450.638 69.7727 447.8 70.1894 444.772 71.0227C441.745 71.8561 438.906 73.4848 436.257 75.9091C433.608 78.2576 431.413 81.7424 429.672 86.3636C428.007 90.9848 427.174 97.1212 427.174 104.773L409.463 96.3636C409.463 86.6667 411.431 77.5757 415.367 69.0909C419.303 60.6061 425.206 53.75 433.078 48.5227C441.026 43.2954 451.017 40.6818 463.051 40.6818C472.664 40.6818 480.498 42.3106 486.553 45.5682C492.608 48.8258 497.301 52.9545 500.631 57.9545C504.037 62.9545 506.459 68.1818 507.897 73.6364C509.335 79.0151 510.206 83.9394 510.509 88.4091C510.811 92.8788 510.963 96.1364 510.963 98.1818V167.045H479.627ZM395.839 167.045V44.3182H423.314V85H427.174V167.045H395.839Z" fill="#FAFAFA" style="fill:#FAFAFA;fill:color(display-p3 0.9804 0.9804 0.9804);fill-opacity:1;"/>
<path d="M579.252 170.455C563.811 170.455 551.322 166.97 541.785 160C532.324 152.955 526.572 143.03 524.528 130.227L556.091 125.455C557.377 131.212 560.216 135.72 564.606 138.977C569.072 142.235 574.71 143.864 581.522 143.864C587.124 143.864 591.438 142.803 594.465 140.682C597.493 138.485 599.007 135.455 599.007 131.591C599.007 129.167 598.401 127.235 597.19 125.795C595.979 124.28 593.254 122.803 589.016 121.364C584.853 119.924 578.343 118.03 569.488 115.682C559.497 113.106 551.512 110.227 545.532 107.045C539.553 103.864 535.238 100.076 532.589 95.6818C529.94 91.2121 528.615 85.8333 528.615 79.5455C528.615 71.6667 530.621 64.8485 534.633 59.0909C538.644 53.2576 544.283 48.7879 551.549 45.6818C558.891 42.5 567.52 40.9091 577.435 40.9091C587.048 40.9091 595.563 42.3864 602.98 45.3409C610.398 48.2954 616.377 52.5 620.919 57.9545C625.536 63.4091 628.374 69.8485 629.434 77.2727L597.871 82.9545C597.342 78.4091 595.374 74.8106 591.968 72.1591C588.562 69.5076 583.944 67.9545 578.116 67.5C572.44 67.1212 567.861 67.8788 564.379 69.7727C560.973 71.6667 559.27 74.3939 559.27 77.9545C559.27 80.0758 559.989 81.8561 561.427 83.2954C562.941 84.7348 566.006 86.2121 570.623 87.7273C575.316 89.2424 582.431 91.2121 591.968 93.6364C601.277 96.0606 608.733 98.9015 614.334 102.159C620.011 105.341 624.136 109.205 626.709 113.75C629.283 118.22 630.569 123.636 630.569 130C630.569 142.576 626.028 152.462 616.945 159.659C607.862 166.856 595.298 170.455 579.252 170.455Z" fill="#FAFAFA" style="fill:#FAFAFA;fill:color(display-p3 0.9804 0.9804 0.9804);fill-opacity:1;"/>
<path d="M648.706 27.2727V0H679.588V27.2727H648.706ZM648.706 167.045V44.3182H679.588V167.045H648.706Z" fill="#FAFAFA" style="fill:#FAFAFA;fill:color(display-p3 0.9804 0.9804 0.9804);fill-opacity:1;"/>
<path d="M756.995 225C750.032 225 743.409 223.864 737.126 221.591C730.844 219.394 725.205 216.288 720.21 212.273C715.29 208.333 711.279 203.712 708.175 198.409L736.786 184.545C738.754 188.182 741.554 190.947 745.187 192.841C748.896 194.735 752.908 195.682 757.222 195.682C761.839 195.682 766.191 194.886 770.279 193.295C774.366 191.78 777.62 189.47 780.042 186.364C782.54 183.333 783.713 179.545 783.562 175V139.318H787.422V44.3182H814.443V175.455C814.443 178.485 814.292 181.326 813.989 183.977C813.762 186.705 813.308 189.394 812.627 192.045C810.659 199.545 806.988 205.72 801.614 210.568C796.316 215.417 789.806 219.015 782.086 221.364C774.366 223.788 766.002 225 756.995 225ZM754.27 170.455C742.992 170.455 733.115 167.614 724.638 161.932C716.161 156.25 709.538 148.523 704.769 138.75C700.076 128.977 697.73 117.955 697.73 105.682C697.73 93.1818 700.114 82.0833 704.883 72.3864C709.727 62.6136 716.501 54.9242 725.205 49.3182C733.91 43.7121 744.128 40.9091 755.86 40.9091C767.516 40.9091 777.318 43.75 785.265 49.4318C793.212 55.1136 799.23 62.8409 803.317 72.6136C807.404 82.3864 809.448 93.4091 809.448 105.682C809.448 117.955 807.366 128.977 803.203 138.75C799.116 148.523 792.985 156.25 784.811 161.932C776.636 167.614 766.456 170.455 754.27 170.455ZM759.266 142.955C766.153 142.955 771.641 141.402 775.728 138.295C779.891 135.189 782.881 130.833 784.697 125.227C786.514 119.621 787.422 113.106 787.422 105.682C787.422 98.2576 786.514 91.7424 784.697 86.1364C782.881 80.5303 779.967 76.1742 775.955 73.0682C772.019 69.9621 766.835 68.4091 760.401 68.4091C753.513 68.4091 747.837 70.1136 743.371 73.5227C738.981 76.8561 735.726 81.3636 733.607 87.0454C731.488 92.6515 730.428 98.8636 730.428 105.682C730.428 112.576 731.45 118.864 733.493 124.545C735.537 130.152 738.678 134.621 742.917 137.955C747.155 141.288 752.605 142.955 759.266 142.955Z" fill="#FAFAFA" style="fill:#FAFAFA;fill:color(display-p3 0.9804 0.9804 0.9804);fill-opacity:1;"/>
<path d="M920.717 167.045V109.091C920.717 106.288 920.565 102.727 920.263 98.4091C919.96 94.0151 919.014 89.6212 917.424 85.2273C915.835 80.8333 913.223 77.1591 909.59 74.2045C906.033 71.25 900.962 69.7727 894.377 69.7727C891.728 69.7727 888.889 70.1894 885.862 71.0227C882.834 71.8561 879.996 73.4848 877.347 75.9091C874.697 78.2576 872.502 81.7424 870.762 86.3636C869.096 90.9848 868.264 97.1212 868.264 104.773L850.552 96.3636C850.552 86.6667 852.52 77.5757 856.456 69.0909C860.392 60.6061 866.296 53.75 874.168 48.5227C882.115 43.2954 892.106 40.6818 904.141 40.6818C913.753 40.6818 921.587 42.3106 927.642 45.5682C933.697 48.8258 938.39 52.9545 941.721 57.9545C945.127 62.9545 947.549 68.1818 948.987 73.6364C950.425 79.0151 951.295 83.9394 951.598 88.4091C951.901 92.8788 952.052 96.1364 952.052 98.1818V167.045H920.717ZM836.928 167.045V3.40909H864.404V87.5H868.264V167.045H836.928Z" fill="#FAFAFA" style="fill:#FAFAFA;fill:color(display-p3 0.9804 0.9804 0.9804);fill-opacity:1;"/>
<path d="M1046 167.045C1037.52 168.636 1029.2 169.318 1021.02 169.091C1012.92 168.939 1005.66 167.538 999.224 164.886C992.866 162.159 988.022 157.803 984.692 151.818C981.664 146.212 980.074 140.53 979.923 134.773C979.772 128.939 979.696 122.348 979.696 115V10.2273H1010.58V113.182C1010.58 117.955 1010.62 122.273 1010.69 126.136C1010.84 129.924 1011.64 132.955 1013.08 135.227C1015.8 139.545 1020.15 141.894 1026.13 142.273C1032.11 142.652 1038.73 142.348 1046 141.364V167.045ZM958.806 68.1818V44.3182H1046V68.1818H958.806Z" fill="#FAFAFA" style="fill:#FAFAFA;fill:color(display-p3 0.9804 0.9804 0.9804);fill-opacity:1;"/>
</g>
<defs>
<clipPath id="clip0_381_750">
<rect width="1046" height="126" fill="white" style="fill:white;fill-opacity:1;"/>
</clipPath>
</defs>
</svg>
