<svg width="78" height="26" viewBox="0 0 78 26" fill="none" xmlns="http://www.w3.org/2000/svg">
<g clip-path="url(#clip0_269_273)">
<mask id="mask0_269_273" style="mask-type:luminance" maskUnits="userSpaceOnUse" x="0" y="0" width="78" height="26">
<path d="M0.5 0H77.5V26H0.5V0Z" fill="white" style="fill:white;fill-opacity:1;"/>
</mask>
<g mask="url(#mask0_269_273)">
<path d="M11.0681 12.524L16.9332 20.9444H13.6496L8.59983 13.7624H6.1768V20.9444H3.30088V7.63843H1.12695L2.57624 4.95923H6.1768V11.2858H8.59983L13.4006 4.95923H16.6615L11.0681 12.524ZM16.0501 15.1807C16.0501 13.935 16.3369 12.8467 16.9106 11.9161C17.4691 11.0456 18.2315 10.3777 19.1977 9.91242C20.1639 9.44709 21.2056 9.21446 22.3228 9.21446C23.4701 9.21446 24.5043 9.43958 25.4251 9.88988C26.3913 10.3551 27.1537 11.0456 27.7122 11.9612C28.2709 12.8618 28.5502 13.935 28.5502 15.1807C28.5502 16.4416 28.2709 17.5298 27.7122 18.4453C27.1537 19.3459 26.3913 20.0439 25.4251 20.5392C24.474 21.0195 23.4399 21.2596 22.3228 21.2596C21.2207 21.2596 20.1866 21.0195 19.2204 20.5392C18.2391 20.0588 17.4616 19.3609 16.8879 18.4453C16.3293 17.5147 16.0501 16.4266 16.0501 15.1807ZM64.8955 9.5747H67.4544V11.1281C67.8469 10.5277 68.3677 10.07 69.0169 9.75475C69.6812 9.42455 70.5341 9.25945 71.5758 9.25945C72.6477 9.25945 73.5989 9.49959 74.4292 9.97994C75.229 10.4752 75.8479 11.1807 76.286 12.0963C76.7392 12.9969 76.9652 14.0325 76.9652 15.2033C76.9652 16.389 76.7392 17.4397 76.286 18.3553C75.8479 19.2559 75.229 19.9538 74.4292 20.4491C74.0515 20.7043 73.6062 20.8919 73.093 21.012C72.5948 21.1471 72.0891 21.2146 71.5758 21.2146C70.6851 21.2146 70.0208 21.1471 69.583 21.012C68.6773 20.7418 68.0356 20.2915 67.6582 19.6611V24.9745H64.8955V9.5747ZM30.0221 9.5747H32.7621V13.8974H37.4497V9.5747H40.1671V20.9444H37.4497V16.1489H32.7621V20.9444H30.0221V9.5747ZM41.3673 9.5747H51.8972V11.736H48.0023V20.9444H45.217V11.736H41.3673V9.5747ZM55.6789 9.5747C56.7055 12.3665 57.6416 15.1282 58.487 17.86C59.287 15.1582 60.1929 12.3965 61.2043 9.5747H63.967L59.7551 21.1695C59.4078 22.1152 59.0757 22.8432 58.7587 23.3535C58.4115 23.8638 57.9812 24.2465 57.468 24.5017C56.9697 24.7718 56.3055 24.907 55.4752 24.907C55.0071 24.907 54.7505 24.8995 54.7052 24.8844L53.7767 22.723C54.0636 22.7831 54.4184 22.8131 54.8411 22.8131C55.3544 22.8131 55.7695 22.7381 56.0866 22.588C56.3734 22.4679 56.5923 22.3028 56.7433 22.0927C56.8942 21.8975 57.0226 21.6499 57.1282 21.3497L52.7804 9.5747H55.6789ZM18.8354 15.1582C18.8354 16.404 19.1374 17.3572 19.7412 18.0176C20.3451 18.663 21.1829 18.9857 22.2548 18.9857C23.3418 18.9857 24.1872 18.663 24.791 18.0176C25.41 17.3572 25.7195 16.404 25.7195 15.1582C25.7195 13.9425 25.4176 13.0269 24.8137 12.4114C24.2098 11.7811 23.3569 11.4659 22.2548 11.4659C21.1678 11.4659 20.3224 11.7811 19.7186 12.4114C19.1298 13.0269 18.8354 13.9425 18.8354 15.1582ZM67.5903 15.1807C67.6205 16.3065 67.9224 17.2071 68.4961 17.8825C69.0697 18.5579 69.8774 18.8956 70.9191 18.8956C71.9608 18.8956 72.7609 18.5579 73.3193 17.8825C73.8931 17.2071 74.1873 16.3065 74.2026 15.1807C74.1873 14.07 73.8931 13.1844 73.3193 12.524C72.7609 11.8486 71.9608 11.5109 70.9191 11.5109C69.8774 11.5109 69.0697 11.8411 68.4961 12.5015C67.9224 13.162 67.6205 14.055 67.5903 15.1807Z" fill="#17181D" style="fill:#17181D;fill:color(display-p3 0.0902 0.0941 0.1137);fill-opacity:1;"/>
</g>
</g>
<defs>
<clipPath id="clip0_269_273">
<rect width="77" height="26" fill="white" style="fill:white;fill-opacity:1;" transform="translate(0.5)"/>
</clipPath>
</defs>
</svg>
