<svg width="31" height="30" viewBox="0 0 31 30" fill="none" xmlns="http://www.w3.org/2000/svg">
<g clip-path="url(#clip0_269_263)">
<mask id="mask0_269_263" style="mask-type:luminance" maskUnits="userSpaceOnUse" x="0" y="0" width="31" height="30">
<path d="M30.5 0H0.5V30H30.5V0Z" fill="white" style="fill:white;fill-opacity:1;"/>
</mask>
<g mask="url(#mask0_269_263)">
<path d="M30.5 0H0.5V30H30.5V0Z" fill="#17181D" style="fill:#17181D;fill:color(display-p3 0.0902 0.0941 0.1137);fill-opacity:1;"/>
<path d="M9.62616 2.30713L7.42132 6.88615L5.21647 2.30713H2.81055V9.22858H4.49681V4.27561L6.65227 8.45953H8.19037L10.3458 4.27561V9.22858H12.0356V2.30713H9.62616Z" fill="white" style="fill:white;fill-opacity:1;"/>
<path d="M20.4883 2.30713V3.68648H23.501L23.4939 9.22858H25.1802L25.1872 3.68648H28.2035V2.30713H20.4883Z" fill="white" style="fill:white;fill-opacity:1;"/>
<path d="M26.5133 25.3822C26.471 25.6573 26.3616 25.8866 26.1817 26.056C26.0124 26.2182 25.7866 26.3311 25.5044 26.3981C25.2257 26.4616 24.82 26.5005 24.3861 26.5005C23.9522 26.5005 23.5429 26.444 23.2078 26.3276C22.8832 26.2182 22.6257 26.0242 22.4458 25.7526C22.2624 25.4809 22.1706 25.0858 22.1706 24.5849V23.8758C22.1706 23.3713 22.2624 22.9798 22.4458 22.7081C22.6257 22.4365 22.8832 22.246 23.2078 22.1331C23.5429 22.0202 23.938 21.9602 24.3861 21.9602C24.8341 21.9602 25.2257 21.999 25.5044 22.0625C25.7866 22.126 26.0124 22.2425 26.1817 22.4047C26.3581 22.5776 26.471 22.8034 26.5133 23.0785H28.2031C28.1572 22.507 27.9632 22.0202 27.6245 21.6322C27.3141 21.2759 26.8872 21.0148 26.3546 20.856C25.836 20.7008 25.1586 20.6197 24.3896 20.6197C23.5817 20.6197 22.8797 20.7361 22.3012 20.9654C21.7156 21.1982 21.264 21.5863 20.95 22.119C20.6502 22.6305 20.495 23.3114 20.4844 24.1474V24.2251L20.5761 24.2286L20.4844 24.2321V24.3097C20.495 25.1458 20.6502 25.8267 20.95 26.3382C21.2605 26.8709 21.7156 27.2589 22.3012 27.4917C22.8762 27.7211 23.5782 27.8375 24.3896 27.8375C25.1975 27.8375 25.8395 27.7563 26.3546 27.6011C26.8872 27.4424 27.3141 27.1813 27.6245 26.825C27.9632 26.437 28.1572 25.9501 28.2031 25.3786L26.5133 25.3822Z" fill="white" style="fill:white;fill-opacity:1;"/>
</g>
</g>
<defs>
<clipPath id="clip0_269_263">
<rect width="30" height="30" fill="white" style="fill:white;fill-opacity:1;" transform="translate(0.5)"/>
</clipPath>
</defs>
</svg>
