<svg width="73" height="26" viewBox="0 0 73 26" fill="none" xmlns="http://www.w3.org/2000/svg">
<g clip-path="url(#clip0_269_279)">
<path d="M36.3472 12.0176C35.8504 11.8248 35.2005 11.767 34.4934 11.767H30.5563V10.5329H37.3219V8.41174H27.7852V17.5906H34.245C35.1433 17.5906 35.8119 17.5135 36.309 17.3205C37.3602 16.9156 38.0673 15.9322 38.0673 14.6402C38.0673 13.329 37.3984 12.4226 36.3472 12.0176ZM34.9711 15.1994C34.8183 15.2573 34.6081 15.2765 34.3404 15.2765H30.5563V13.8109H34.3404C34.6463 13.8109 34.8947 13.8304 35.0859 13.9267C35.3151 14.0424 35.4299 14.2546 35.4299 14.5244C35.4299 14.7944 35.2961 15.0837 34.9711 15.1994Z" fill="#17181D" style="fill:#17181D;fill:color(display-p3 0.0902 0.0941 0.1137);fill-opacity:1;"/>
<path d="M45.837 8.41174H41.7854L38.0586 17.5906H41.1929L41.7089 16.26H45.9134L46.4486 17.5906H49.5639L45.837 8.41174ZM42.3969 14.2352L43.7157 10.5329H43.9259L45.2446 14.2352H42.3969Z" fill="#17181D" style="fill:#17181D;fill:color(display-p3 0.0902 0.0941 0.1137);fill-opacity:1;"/>
<path d="M53.1305 14.1775V17.5907H50.3594V8.41174H53.1305V11.7671H57.5835V8.41174H60.3547V17.5907H57.5835V14.1775H53.1305Z" fill="#17181D" style="fill:#17181D;fill:color(display-p3 0.0902 0.0941 0.1137);fill-opacity:1;"/>
<path d="M64.74 14.1197V17.5907H61.9688V8.41174H64.74V11.8635H65.5044L68.849 8.41174H72.3271L67.8933 12.8083L72.4992 17.5907H68.8106L65.5044 14.1197H64.74Z" fill="#17181D" style="fill:#17181D;fill:color(display-p3 0.0902 0.0941 0.1137);fill-opacity:1;"/>
<path d="M0.5 3.05884H22.4789V13.4473C22.4789 16.3065 20.9672 18.9486 18.5133 20.3783L11.4895 24.4706L4.46565 20.3783C2.01167 18.9486 0.500003 16.3065 0.500003 13.4473L0.5 3.05884Z" fill="#17181D" style="fill:#17181D;fill:color(display-p3 0.0902 0.0941 0.1137);fill-opacity:1;"/>
<path fill-rule="evenodd" clip-rule="evenodd" d="M6.5625 8.41174V11.8588C7.02967 11.3265 7.87908 10.9663 8.85028 10.9663H9.90565V14.9735C9.90565 16.0395 9.61856 17.0834 9.19262 17.5967H13.7834C13.3584 17.0829 13.072 16.0403 13.072 14.9755V10.9663H14.1274C15.0986 10.9663 15.948 11.3265 16.4151 11.8588V8.41174H6.5625Z" fill="white" style="fill:white;fill-opacity:1;"/>
</g>
<defs>
<clipPath id="clip0_269_279">
<rect width="72" height="26" fill="white" style="fill:white;fill-opacity:1;" transform="translate(0.5)"/>
</clipPath>
</defs>
</svg>
