<svg width="137" height="26" viewBox="0 0 137 26" fill="none" xmlns="http://www.w3.org/2000/svg">
<g clip-path="url(#clip0_269_286)">
<path d="M31.8535 7.99023H34.1844V12.0684H39.2088V7.99023H41.5398V18.0227H39.2088V14.0619H34.1844V18.0227H31.8535V7.99023Z" fill="#17181D" style="fill:#17181D;fill:color(display-p3 0.0902 0.0941 0.1137);fill-opacity:1;"/>
<path d="M53.9975 13.7622H46.163C46.3055 14.5049 46.655 15.0912 47.2378 15.5212C47.8205 15.9511 48.5327 16.1726 49.4004 16.1726C50.501 16.1726 51.3946 15.8078 52.1068 15.0781L53.363 16.5244C52.9097 17.0586 52.3529 17.4756 51.6666 17.7492C50.9802 18.0227 50.2033 18.1661 49.3486 18.1661C48.2479 18.1661 47.2896 17.9447 46.4479 17.5146C45.619 17.0716 44.9716 16.4593 44.5184 15.6775C44.0652 14.8957 43.832 14.0098 43.832 13.0195C43.832 12.0423 44.0522 11.1563 44.4925 10.3745C44.9328 9.5929 45.5544 8.98042 46.3314 8.53748C47.1213 8.09446 48.0018 7.88599 48.986 7.88599C49.9572 7.88599 50.8248 8.10749 51.5888 8.53748C52.3529 8.96746 52.9486 9.57977 53.3759 10.3616C53.8033 11.1433 54.0234 12.0554 54.0234 13.0716C54.0363 13.2281 54.0234 13.4625 53.9975 13.7622ZM47.0954 10.4267C46.5773 10.8697 46.2666 11.469 46.15 12.1987H51.809C51.7054 11.469 51.4077 10.8827 50.8896 10.4267C50.3846 9.9707 49.75 9.74915 48.986 9.74915C48.2479 9.74915 47.6133 9.9707 47.0954 10.4267Z" fill="#17181D" style="fill:#17181D;fill:color(display-p3 0.0902 0.0941 0.1137);fill-opacity:1;"/>
<path d="M56.6016 7.99023H58.9326V14.6091L64.4491 7.99023H66.5728V18.0227H64.242V11.4039L58.7512 18.0227H56.6016V7.99023ZM59.1269 6.10098C58.5959 5.63193 58.3239 4.94138 58.311 4.04236H59.8649C59.8779 4.49838 60.0203 4.85017 60.2794 5.11076C60.5512 5.37135 60.9268 5.50164 61.4059 5.50164C61.885 5.50164 62.2607 5.37135 62.5325 5.11076C62.8174 4.85017 62.9599 4.48535 62.9729 4.04236H64.5656C64.5527 4.94138 64.2807 5.63193 63.7498 6.10098C63.2189 6.57004 62.4419 6.80457 61.4318 6.80457C60.4217 6.80457 59.6577 6.57004 59.1269 6.10098Z" fill="#17181D" style="fill:#17181D;fill:color(display-p3 0.0902 0.0941 0.1137);fill-opacity:1;"/>
<path d="M77.851 8.51137C78.6151 8.94135 79.2238 9.5407 79.6511 10.3225C80.0914 11.1043 80.3115 11.9901 80.3115 13.0065C80.3115 14.0228 80.0914 14.9218 79.6511 15.7035C79.2108 16.4852 78.6151 17.0976 77.851 17.5146C77.0871 17.9446 76.2195 18.1531 75.2482 18.1531C73.9015 18.1531 72.8396 17.6971 72.0497 16.798V21.6709H69.7188V7.99019H71.946V9.30611C72.3346 8.82405 72.8136 8.47225 73.3706 8.23774C73.9403 8.00321 74.562 7.88595 75.2482 7.88595C76.2195 7.87292 77.0871 8.08139 77.851 8.51137ZM77.1 15.2865C77.6568 14.7133 77.9288 13.9577 77.9288 13.0065C77.9288 12.0684 77.6568 11.3127 77.1 10.7264C76.5432 10.1531 75.8439 9.86642 74.9763 9.86642C74.4194 9.86642 73.9144 9.99668 73.4612 10.2573C73.0079 10.5179 72.6584 10.8827 72.3993 11.3517C72.1403 11.8339 72.0108 12.3811 72.0108 13.0065C72.0108 13.6318 72.1403 14.1791 72.3993 14.6612C72.6584 15.1432 73.0208 15.5081 73.4612 15.7556C73.9144 16.0163 74.4194 16.1465 74.9763 16.1465C75.8439 16.1465 76.5432 15.8599 77.1 15.2865Z" fill="#17181D" style="fill:#17181D;fill:color(display-p3 0.0902 0.0941 0.1137);fill-opacity:1;"/>
<path d="M84.3388 17.5016C83.5229 17.0586 82.9013 16.4462 82.4481 15.6644C81.9949 14.8828 81.7617 13.9967 81.7617 13.0065C81.7617 12.0162 81.9949 11.1303 82.4481 10.3616C82.9013 9.57977 83.5358 8.98042 84.3388 8.53748C85.1415 8.09446 86.0614 7.88599 87.0709 7.88599C88.0938 7.88599 89.0137 8.10749 89.8162 8.53748C90.6322 8.98042 91.2539 9.57977 91.7067 10.3616C92.1603 11.1433 92.3935 12.0162 92.3935 13.0065C92.3935 13.9967 92.1603 14.8828 91.7067 15.6644C91.2539 16.4462 90.6195 17.0586 89.8162 17.5016C89.0002 17.9447 88.0938 18.1531 87.0709 18.1531C86.0614 18.1531 85.1542 17.9447 84.3388 17.5016ZM89.1945 15.2866C89.752 14.7134 90.0367 13.9577 90.0367 13.0065C90.0367 12.0684 89.752 11.3127 89.1945 10.7264C88.6378 10.1531 87.9257 9.86645 87.0709 9.86645C86.2169 9.86645 85.5039 10.1531 84.9473 10.7264C84.3906 11.2997 84.1186 12.0554 84.1186 13.0065C84.1186 13.9446 84.3906 14.7002 84.9473 15.2866C85.5039 15.8599 86.2033 16.1465 87.0709 16.1465C87.9384 16.1465 88.6378 15.8599 89.1945 15.2866Z" fill="#17181D" style="fill:#17181D;fill:color(display-p3 0.0902 0.0941 0.1137);fill-opacity:1;"/>
<path d="M96.4473 17.5016C95.6321 17.0586 94.9842 16.4462 94.5179 15.6644C94.0525 14.8828 93.832 13.9967 93.832 13.0065C93.832 12.0162 94.0652 11.1303 94.5179 10.3616C94.9842 9.57977 95.6195 8.98042 96.4346 8.53748C97.2506 8.09446 98.1823 7.88599 99.2315 7.88599C100.216 7.88599 101.083 8.08143 101.821 8.48532C102.561 8.88921 103.117 9.46256 103.492 10.2183L101.692 11.2737C101.407 10.8046 101.044 10.4658 100.618 10.2312C100.189 9.9967 99.7113 9.87949 99.2061 9.87949C98.3378 9.87949 97.613 10.1661 97.0428 10.7394C96.4735 11.3127 96.1888 12.0684 96.1888 13.0195C96.1888 13.9706 96.4735 14.7395 97.0428 15.2997C97.613 15.873 98.3378 16.1596 99.2188 16.1596C99.724 16.1596 100.203 16.0423 100.63 15.8078C101.058 15.5733 101.42 15.2346 101.705 14.7655L103.505 15.8209C103.117 16.5766 102.561 17.1498 101.809 17.5537C101.07 17.9576 100.216 18.1661 99.2442 18.1661C98.1959 18.1531 97.276 17.9447 96.4473 17.5016Z" fill="#17181D" style="fill:#17181D;fill:color(display-p3 0.0902 0.0941 0.1137);fill-opacity:1;"/>
<path d="M114.706 13.7622H106.872C107.014 14.5049 107.363 15.0912 107.947 15.5212C108.529 15.9511 109.241 16.1726 110.109 16.1726C111.209 16.1726 112.103 15.8078 112.816 15.0781L114.071 16.5244C113.618 17.0586 113.062 17.4756 112.375 17.7492C111.689 18.0227 110.912 18.1661 110.058 18.1661C108.956 18.1661 107.998 17.9447 107.157 17.5146C106.328 17.0716 105.68 16.4593 105.227 15.6775C104.773 14.8957 104.541 14.0098 104.541 13.0195C104.541 12.0423 104.761 11.1563 105.202 10.3745C105.642 9.5929 106.263 8.98042 107.041 8.53748C107.83 8.09446 108.71 7.88599 109.695 7.88599C110.665 7.88599 111.534 8.10749 112.298 8.53748C113.062 8.96746 113.657 9.57977 114.097 10.3616C114.525 11.1433 114.744 12.0554 114.744 13.0716C114.744 13.2281 114.732 13.4625 114.706 13.7622ZM107.803 10.4267C107.286 10.8697 106.975 11.469 106.858 12.1987H112.517C112.415 11.469 112.116 10.8827 111.598 10.4267C111.094 9.9707 110.446 9.74915 109.695 9.74915C108.944 9.74915 108.321 9.9707 107.803 10.4267Z" fill="#17181D" style="fill:#17181D;fill:color(display-p3 0.0902 0.0941 0.1137);fill-opacity:1;"/>
<path d="M124.833 9.98366H121.336V18.0227H119.005V9.98366H115.496V7.99023H124.833V9.98366Z" fill="#17181D" style="fill:#17181D;fill:color(display-p3 0.0902 0.0941 0.1137);fill-opacity:1;"/>
<path d="M126.529 7.99023H128.861V14.6091L134.377 7.99023H136.5V18.0227H134.169V11.4038L128.679 18.0227H126.529V7.99023Z" fill="#17181D" style="fill:#17181D;fill:color(display-p3 0.0902 0.0941 0.1137);fill-opacity:1;"/>
<path d="M26.0528 16.772C25.5996 16.3159 24.8615 16.3159 24.3953 16.772C24.0716 17.0977 23.9809 17.5668 24.1104 17.9707L22.1421 19.2475C22.1162 19.2215 22.1032 19.1954 22.0774 19.1824C21.7277 18.8306 21.2744 18.6743 20.8212 18.7004L20.1996 16.3551C20.2902 16.3029 20.3679 16.2508 20.4456 16.1726C20.7176 15.899 20.8212 15.5342 20.7565 15.1824L22.7507 14.0098C22.7765 14.0359 22.8025 14.0619 22.8284 14.088C23.3722 14.6351 24.2528 14.6351 24.7967 14.088C25.3406 13.5407 25.3406 12.6547 24.7967 12.1075C24.7061 12.0162 24.6025 11.9381 24.4988 11.886L25.0169 9.21501C25.2758 9.21501 25.5348 9.1238 25.7291 8.91529C26.1175 8.52444 26.1175 7.88599 25.7291 7.49511C25.3406 7.10423 24.7061 7.10423 24.3176 7.49511C23.9291 7.88599 23.9291 8.52444 24.3176 8.91529C24.3564 8.95442 24.4082 8.99346 24.4471 9.0325L23.9291 11.7036C23.5535 11.6645 23.178 11.7948 22.8802 12.0554L20.5104 10.7524C20.6269 10.3616 20.5233 9.93166 20.2255 9.63194C20.1737 9.57977 20.109 9.52769 20.0442 9.48865L20.4974 7.11726C20.9895 7.1824 21.4945 7.02606 21.8702 6.64821C22.5046 6.00977 22.5046 4.96742 21.8702 4.32898C21.4039 3.85993 20.7176 3.72964 20.1349 3.96416L18.8658 1.97068C19.2931 1.51466 19.2802 0.785019 18.8399 0.342019C18.3866 -0.114006 17.6485 -0.114006 17.1824 0.342019C16.7291 0.798041 16.7291 1.54072 17.1824 2.00977C17.5061 2.3355 17.9723 2.42671 18.3737 2.29642L19.6428 4.27686C19.6169 4.30293 19.5909 4.31596 19.578 4.34202C19.2285 4.69381 19.073 5.14983 19.0989 5.60586L16.768 6.23127C16.7162 6.14007 16.6643 6.06189 16.5866 5.98371C16.3148 5.71009 15.9521 5.60585 15.6025 5.67101L14.437 3.65146C14.4629 3.62541 14.4888 3.61237 14.5147 3.58631C15.0586 3.03909 15.0586 2.1531 14.5147 1.60587C13.9708 1.05863 13.0903 1.05863 12.5463 1.60587C12.4557 1.69706 12.378 1.80131 12.3263 1.90554L9.67155 1.38436C9.67155 1.12378 9.58091 0.863192 9.3737 0.667751C8.98522 0.276872 8.35071 0.276872 7.96222 0.667751C7.57373 1.05863 7.57373 1.69706 7.96222 2.08794C8.35071 2.47882 8.98522 2.47882 9.3737 2.08794C9.41256 2.04886 9.4515 1.99674 9.49028 1.95766L12.145 2.47882C12.1061 2.85668 12.2356 3.23453 12.4945 3.5342L11.1997 5.91857C10.8111 5.8013 10.3838 5.90553 10.086 6.20521C10.0342 6.25733 9.98232 6.32247 9.94347 6.38762L7.58668 5.93159C7.65143 5.43648 7.49603 4.92834 7.12049 4.55048C6.48596 3.91205 5.44999 3.91205 4.81546 4.55048C4.34927 5.01953 4.21978 5.71009 4.43992 6.29641L2.45863 7.5342C2.00539 7.10423 1.28021 7.11726 0.839927 7.56026C0.386691 8.02932 0.386691 8.77199 0.839927 9.22797C1.29316 9.68403 2.03129 9.68403 2.49748 9.22797C2.82122 8.90225 2.91187 8.43321 2.78237 8.02932L4.75071 6.75244C4.77662 6.7785 4.78956 6.80456 4.81546 6.81759C5.1651 7.16938 5.61834 7.32573 6.07157 7.29967L6.69315 9.6449C6.60251 9.69707 6.52482 9.74915 6.44711 9.82741C6.17517 10.101 6.07157 10.4658 6.13632 10.8175L4.12913 11.9902C4.10322 11.9642 4.09028 11.9382 4.06438 11.9121C3.52049 11.3648 2.63992 11.3648 2.09604 11.9121C1.55216 12.4593 1.55216 13.3453 2.09604 13.8926C2.18669 13.9838 2.29028 14.0619 2.39388 14.1139L1.8759 16.785C1.61691 16.785 1.35791 16.8762 1.16367 17.0847C0.77518 17.4756 0.77518 18.114 1.16367 18.5049C1.55216 18.8958 2.18669 18.8958 2.57517 18.5049C2.96366 18.114 2.96366 17.4756 2.57517 17.0847C2.53633 17.0457 2.48453 17.0065 2.44568 16.9674L2.96366 14.2964C3.3392 14.3355 3.71474 14.2052 4.01258 13.9446L6.38236 15.2475C6.26582 15.6384 6.36941 16.0683 6.66725 16.3681C6.71906 16.4201 6.7838 16.4723 6.84855 16.5114L6.39531 18.8827C5.90323 18.8176 5.39819 18.974 5.02265 19.3518C4.38813 19.9902 4.38813 21.0326 5.02265 21.671C5.48883 22.1401 6.17517 22.2704 6.7579 22.0358L8.02697 24.0293C7.59963 24.4853 7.61257 25.2149 8.05286 25.6579C8.5061 26.114 9.24421 26.114 9.71041 25.6579C10.1637 25.202 10.1637 24.4592 9.71041 23.9902C9.38671 23.6645 8.92049 23.5733 8.51905 23.7035L7.24998 21.7231C7.27588 21.697 7.30179 21.6841 7.31473 21.658C7.66438 21.3062 7.81976 20.8501 7.78092 20.3941L10.1119 19.7687C10.1637 19.8599 10.2155 19.9381 10.2932 20.0163C10.565 20.2899 10.9277 20.3941 11.2774 20.329L12.4427 22.3355C12.4169 22.3615 12.391 22.3746 12.3651 22.4007C11.8212 22.9478 11.8212 23.8339 12.3651 24.3811C12.9089 24.9283 13.7896 24.9283 14.3335 24.3811C14.424 24.2899 14.5017 24.1856 14.5535 24.0813L17.2083 24.6026C17.2083 24.8632 17.2989 25.1238 17.5061 25.3193C17.8946 25.7101 18.5291 25.7101 18.9176 25.3193C19.306 24.9283 19.306 24.2899 18.9176 23.899C18.5291 23.5081 17.8946 23.5081 17.5061 23.899C17.4672 23.938 17.4284 23.9902 17.3895 24.0293L14.7349 23.5082C14.7737 23.1303 14.6442 22.7525 14.3852 22.4527L15.6801 20.0684C16.0687 20.1857 16.496 20.0814 16.7938 19.7817C16.8457 19.7297 16.8975 19.6645 16.9363 19.5993L19.2931 20.0553C19.2285 20.5505 19.3837 21.0586 19.7593 21.4365C20.3938 22.0749 21.4298 22.0749 22.0644 21.4365C22.5305 20.9674 22.6601 20.2769 22.4398 19.6906L24.4211 18.4136C24.8744 18.8436 25.5996 18.8306 26.04 18.3877C26.5061 17.9837 26.5061 17.241 26.0528 16.772ZM19.578 6.63517C19.6946 6.75244 19.8112 6.84364 19.9536 6.90878L19.4874 9.29318C19.2672 9.28014 19.0471 9.33222 18.8528 9.44943L16.768 7.33876C16.8715 7.16938 16.9234 6.97394 16.9234 6.76547L19.2542 6.15309C19.3319 6.33551 19.4355 6.49185 19.578 6.63517ZM7.12049 6.83062C7.23703 6.71335 7.32768 6.59608 7.39244 6.45277L9.74927 6.90878C9.73626 7.13029 9.78812 7.35178 9.90461 7.54722L7.81976 9.65803C7.63847 9.55377 7.44423 9.5016 7.24998 9.5016L6.64135 7.15635C6.80971 7.09121 6.97804 6.97394 7.12049 6.83062ZM7.31473 19.3779C7.19819 19.2606 7.08164 19.1694 6.93919 19.1042L7.39244 16.7329C7.61257 16.7459 7.83271 16.6938 8.02697 16.5766L10.1248 18.6743C10.0212 18.8436 9.9694 19.0391 9.9694 19.2475L7.63847 19.8599C7.56078 19.6775 7.45718 19.5212 7.31473 19.3779ZM11.8212 20.1205C11.8471 20.0944 11.873 20.0684 11.8989 20.0424C12.3393 19.5993 12.3393 18.8697 11.8989 18.4267C11.5233 18.0488 10.9665 17.9967 10.5262 18.2443L8.44135 16.1465C8.68739 15.7036 8.6356 15.1433 8.26006 14.7655C7.81976 14.3224 7.12049 14.3224 6.6802 14.7524L4.34927 13.4756C4.47878 13.1759 4.50467 12.8371 4.41402 12.5244L6.36941 11.3778C6.39531 11.4038 6.42121 11.4299 6.44711 11.456C6.8874 11.899 7.61257 11.899 8.05286 11.456C8.4284 11.0782 8.4802 10.518 8.23416 10.075L10.3191 7.9772C10.7593 8.22476 11.3162 8.17263 11.6917 7.79478C12.132 7.35178 12.132 6.64821 11.7046 6.20521L12.9737 3.85993C13.2716 3.99023 13.6082 4.01628 13.9191 3.92508L15.0716 5.90553C15.0457 5.93159 15.0197 5.95766 14.9939 5.98371C14.5535 6.42671 14.5535 7.15635 14.9939 7.59934C15.3694 7.9772 15.9262 8.02932 16.3665 7.78176L18.4514 9.87949C18.2054 10.3225 18.2571 10.8827 18.6327 11.2605C19.073 11.7036 19.7723 11.7036 20.2126 11.2737L22.5435 12.5505C22.414 12.8501 22.3881 13.1889 22.4787 13.4886L20.5104 14.6482C20.4845 14.6222 20.4585 14.5961 20.4327 14.5701C19.9924 14.1271 19.2672 14.1271 18.827 14.5701C18.4514 14.9479 18.3995 15.5081 18.6456 15.9511L16.5737 18.0358C16.1334 17.7882 15.5766 17.8404 15.2011 18.2182C14.7607 18.6612 14.7607 19.3648 15.1882 19.8078L13.9191 22.153C13.6212 22.0228 13.2845 21.9968 12.9737 22.0879L11.8212 20.1205ZM17.1435 19.0912C17.1565 18.8697 17.1047 18.6482 16.9881 18.4528L19.073 16.3551C19.2414 16.4593 19.4355 16.5114 19.6428 16.5114L20.2513 18.8566C20.0831 18.9349 19.9147 19.0521 19.7723 19.1954C19.6557 19.3127 19.5651 19.43 19.5003 19.5733L17.1435 19.0912Z" fill="#17181D" style="fill:#17181D;fill:color(display-p3 0.0902 0.0941 0.1137);fill-opacity:1;"/>
</g>
<defs>
<clipPath id="clip0_269_286">
<rect width="136" height="26" fill="white" style="fill:white;fill-opacity:1;" transform="translate(0.5)"/>
</clipPath>
</defs>
</svg>
