<svg width="109" height="16" viewBox="0 0 109 16" fill="none" xmlns="http://www.w3.org/2000/svg">
<g clip-path="url(#clip0_269_297)">
<path d="M46.0328 4.70839C44.8016 4.70839 43.7 5.07057 42.7712 5.66711V0.106525H40.1576V10.3542C40.1576 13.4647 42.7928 15.9787 46.0112 15.9787C49.2296 15.9787 51.908 13.486 51.908 10.3329C51.908 7.17976 49.316 4.70839 46.0328 4.70839ZM32.5112 4.87883C29.6168 5.15579 27.2408 7.56325 27.2408 10.4394C27.2408 13.4647 29.9408 16.0213 33.0944 16.0213C36.248 16.0213 38.948 13.486 38.948 10.4394C38.948 9.13981 38.4728 7.96804 37.6736 7.03063L31.9064 0.12783H28.5368L32.5112 4.87883ZM12.3584 11.0786L9.9608 5.11318H8.1248L5.7488 11.0786L3.3512 5.11318H0.5L4.6904 15.6378H6.5264L9.0536 9.37417L11.5808 15.6378H13.4168L17.5856 5.11318H14.756L12.3584 11.0786ZM58.9928 4.72969C55.7312 4.72969 53.096 7.15846 53.096 10.2477C53.096 13.3156 55.4072 16.0213 58.8416 16.0213C60.8936 16.0213 62.5568 15.0626 63.7448 13.4434L61.7144 11.8455C61.1312 12.8682 59.9864 13.4647 58.8632 13.4647C57.3944 13.4647 55.9472 12.4634 55.8392 10.9933H64.3712V10.2264C64.3496 6.98802 62.1248 4.72969 58.9928 4.72969ZM92.2568 4.72969C88.9952 4.72969 86.3816 7.15846 86.3816 10.3755C86.3816 13.4008 88.6928 16 92.1056 16C94.1576 16 95.8208 15.0413 97.0088 13.4221L95.216 11.9521C94.5896 12.8895 93.4448 13.4434 92.0624 13.4434C90.7016 13.4434 89.2112 12.4421 89.1032 10.972H97.592V10.0985C97.592 6.98802 95.3888 4.72969 92.2568 4.72969ZM101.372 8.18109C101.372 7.52064 102.301 7.00932 103.51 7.00932C104.72 7.00932 106.059 7.58455 106.923 8.52197L108.5 6.66844C106.988 5.39015 105.476 4.72969 103.575 4.72969C101.199 4.72969 98.7584 5.77364 98.7584 8.18109C98.7584 11.1425 101.415 11.3555 103.575 11.526C104.785 11.6112 105.865 11.6964 105.865 12.4634C105.865 13.2943 104.634 13.6778 103.575 13.6778C102.193 13.6778 100.875 13.0599 99.9896 12.016L98.3048 13.7417C99.644 15.3182 101.588 16 103.489 16C105.865 16 108.478 14.9134 108.478 12.4208C108.478 9.60852 105.8 9.33156 103.748 9.13981C102.43 8.99068 101.372 8.88416 101.372 8.18109ZM68.3024 7.49933V5.11318H65.6888V15.6165H68.3024V11.1638C68.648 8.69241 70.7 7.69108 73.076 7.69108V5.11318H72.8168C70.808 5.11318 69.3392 5.81625 68.3024 7.49933ZM76.5752 7.49933V5.11318H73.9616V15.6165H76.5752V11.1638C76.9208 8.37284 79.4264 7.69108 81.3488 7.69108V5.11318H81.068C79.0808 5.11318 77.612 5.79494 76.5752 7.49933ZM23.3096 15.6165H25.9232V0.12783H23.3096V15.6165ZM33.0944 13.486C31.3016 13.486 29.8328 12.1012 29.8328 10.3755C29.8328 8.6498 31.28 7.24368 33.0728 7.24368C34.844 7.24368 36.356 8.6285 36.356 10.3755C36.356 12.1225 34.9088 13.486 33.0944 13.486ZM46.0328 13.486C44.2616 13.486 42.7712 12.1225 42.7712 10.3542C42.7712 8.58589 44.1752 7.24368 46.0328 7.24368C47.8904 7.24368 49.316 8.6285 49.316 10.3542C49.316 12.0799 47.8256 13.486 46.0328 13.486ZM18.7952 15.6165H21.4088V5.11318H18.7952V15.6165ZM82.4504 15.6165H85.064V5.11318H82.4504V15.6165ZM20.0696 0C19.0112 0 18.1256 0.852197 18.1256 1.91744C18.1256 3.00399 19.0544 3.74967 20.0696 3.74967C21.1928 3.74967 22.0568 2.83356 22.0568 1.87483C22.0568 0.894807 21.1496 0 20.0696 0ZM83.7464 0C82.688 0 81.7808 0.852197 81.7808 1.91744C81.7808 2.98269 82.6448 3.74967 83.7896 3.74967C84.9344 3.74967 85.712 3.00399 85.712 1.96005C85.712 0.916112 84.8264 0 83.7464 0ZM89.4056 8.88416C89.8376 7.84021 90.7664 7.24368 92.1272 7.24368C93.488 7.24368 94.3304 7.88282 94.676 8.88416H89.4056ZM56.12 8.88416C56.552 7.84021 57.4808 7.24368 58.82 7.24368C60.1808 7.24368 61.0664 7.88282 61.412 8.88416C61.4336 8.88416 56.12 8.88416 56.12 8.88416Z" fill="#17181D" style="fill:#17181D;fill:color(display-p3 0.0902 0.0941 0.1137);fill-opacity:1;"/>
</g>
<defs>
<clipPath id="clip0_269_297">
<rect width="108" height="16" fill="white" style="fill:white;fill-opacity:1;" transform="translate(0.5)"/>
</clipPath>
</defs>
</svg>
